<svg width="112" height="32" viewBox="0 0 112 32" fill="none" xmlns="http://www.w3.org/2000/svg">
<path d="M111.038 28.3098C111.038 30.0151 109.628 31.3965 107.884 31.3965H4.65842C2.91508 31.3965 1.5 30.0151 1.5 28.3098V3.69469C1.5 1.99018 2.91508 0.604004 4.65842 0.604004H107.883C109.628 0.604004 111.038 1.99018 111.038 3.69469L111.038 28.3098Z" fill="black"/>
<path d="M107.551 0.641001C109.451 0.641001 110.996 2.148 110.996 4V28C110.996 29.852 109.451 31.359 107.551 31.359H4.98718C3.08769 31.359 1.54205 29.852 1.54205 28V4C1.54205 2.148 3.08769 0.641001 4.98718 0.641001H107.551ZM107.551 1.90735e-06H4.98718C2.73179 1.90735e-06 0.884613 1.801 0.884613 4V28C0.884613 30.199 2.73179 32 4.98718 32H107.551C109.807 32 111.654 30.199 111.654 28V4C111.654 1.801 109.807 1.90735e-06 107.551 1.90735e-06Z" fill="#A6A6A6"/>
<path d="M25.605 15.8272C25.5812 13.2488 27.7703 11.9944 27.8704 11.936C26.6307 10.1736 24.709 9.93283 24.0337 9.91363C22.4198 9.74803 20.8542 10.8552 20.0321 10.8552C19.1935 10.8552 17.9275 9.92963 16.563 9.95683C14.8071 9.98323 13.1644 10.9744 12.2635 12.5136C10.4042 15.652 11.7909 20.264 13.5722 22.8008C14.4633 24.0432 15.5045 25.4304 16.8674 25.3816C18.2007 25.328 18.6988 24.5528 20.3078 24.5528C21.902 24.5528 22.3697 25.3816 23.7597 25.3504C25.1907 25.328 26.0916 24.1024 26.9515 22.8488C27.9812 21.4248 28.3948 20.0224 28.4112 19.9504C28.3775 19.9392 25.6321 18.9176 25.605 15.8272Z" fill="white"/>
<path d="M22.9794 8.24483C23.6965 7.37043 24.1872 6.18083 24.051 4.97363C23.013 5.01843 21.715 5.67363 20.9675 6.52883C20.3061 7.28243 19.7154 8.51763 19.868 9.67923C21.0339 9.76403 22.2311 9.10563 22.9794 8.24483Z" fill="white"/>
<path d="M41.1308 8.00696C41.1308 8.94856 40.8411 9.65736 40.2627 10.1334C39.7269 10.5726 38.9654 10.7926 37.9792 10.7926C37.4902 10.7926 37.0717 10.7718 36.7213 10.7302V5.58536C37.1784 5.51336 37.6707 5.47656 38.2024 5.47656C39.1419 5.47656 39.85 5.67576 40.3275 6.07416C40.8625 6.52456 41.1308 7.16856 41.1308 8.00696ZM40.2241 8.03016C40.2241 7.41976 40.0584 6.95176 39.7269 6.62536C39.3954 6.29976 38.9113 6.13656 38.2738 6.13656C38.003 6.13656 37.7724 6.15416 37.5812 6.19096V10.1022C37.6871 10.1182 37.8807 10.1254 38.1622 10.1254C38.8202 10.1254 39.3281 9.94696 39.6859 9.59016C40.0436 9.23336 40.2241 8.71336 40.2241 8.03016Z" fill="white"/>
<path d="M45.9382 8.82964C45.9382 9.40964 45.7683 9.88484 45.4286 10.2576C45.0725 10.6408 44.6007 10.832 44.0116 10.832C43.4438 10.832 42.9917 10.6488 42.6545 10.2808C42.318 9.91364 42.1498 9.45044 42.1498 8.89204C42.1498 8.30804 42.323 7.82884 42.6709 7.45684C43.0188 7.08484 43.4865 6.89844 44.0756 6.89844C44.6434 6.89844 45.0996 7.08164 45.445 7.44884C45.7732 7.80564 45.9382 8.26644 45.9382 8.82964ZM45.0463 8.85684C45.0463 8.50884 44.9691 8.21044 44.8157 7.96164C44.6352 7.66084 44.3784 7.51044 44.0444 7.51044C43.699 7.51044 43.4364 7.66084 43.2559 7.96164C43.1016 8.21044 43.0253 8.51364 43.0253 8.87204C43.0253 9.22004 43.1025 9.51844 43.2559 9.76724C43.4421 10.068 43.7014 10.2184 44.0362 10.2184C44.3644 10.2184 44.622 10.0656 44.8075 9.75924C44.9667 9.50564 45.0463 9.20484 45.0463 8.85684Z" fill="white"/>
<path d="M52.3841 6.9751L51.1739 10.7463H50.3862L49.8848 9.1087C49.7577 8.6999 49.6543 8.2935 49.5739 7.8903H49.5583C49.4836 8.3047 49.3802 8.7103 49.2473 9.1087L48.7148 10.7463H47.9181L46.78 6.9751H47.6637L48.1011 8.7679C48.2069 9.1919 48.2939 9.5959 48.3636 9.9783H48.3792C48.4432 9.6631 48.5491 9.2615 48.6984 8.7759L49.2473 6.9759H49.948L50.474 8.7375C50.6012 9.1671 50.7045 9.5807 50.7841 9.9791H50.8079C50.8662 9.5911 50.954 9.1775 51.0705 8.7375L51.5398 6.9759H52.3841V6.9751Z" fill="white"/>
<path d="M56.8419 10.7464H55.9821V8.5864C55.9821 7.9208 55.7228 7.588 55.2026 7.588C54.9474 7.588 54.7414 7.6792 54.5814 7.8624C54.4231 8.0456 54.3427 8.2616 54.3427 8.5088V10.7456H53.4828V8.0528C53.4828 7.7216 53.4721 7.3624 53.4516 6.9736H54.2073L54.2475 7.5632H54.2713C54.3714 7.38 54.5207 7.2288 54.7168 7.108C54.9499 6.9672 55.2108 6.896 55.4963 6.896C55.8573 6.896 56.1576 7.0096 56.3964 7.2376C56.6934 7.5168 56.8419 7.9336 56.8419 8.4872V10.7464Z" fill="white"/>
<path d="M59.2133 10.7462H58.3542V5.24463H59.2133V10.7462Z" fill="white"/>
<path d="M64.2758 8.82964C64.2758 9.40964 64.106 9.88484 63.7663 10.2576C63.4102 10.6408 62.9375 10.832 62.3492 10.832C61.7806 10.832 61.3285 10.6488 60.9921 10.2808C60.6557 9.91364 60.4875 9.45044 60.4875 8.89204C60.4875 8.30804 60.6606 7.82884 61.0085 7.45684C61.3564 7.08484 61.8241 6.89844 62.4124 6.89844C62.981 6.89844 63.4364 7.08164 63.7827 7.44884C64.1109 7.80564 64.2758 8.26644 64.2758 8.82964ZM63.3831 8.85684C63.3831 8.50884 63.306 8.21044 63.1525 7.96164C62.9728 7.66084 62.7152 7.51044 62.3821 7.51044C62.0358 7.51044 61.7732 7.66084 61.5935 7.96164C61.4393 8.21044 61.363 8.51364 61.363 8.87204C61.363 9.22004 61.4401 9.51844 61.5935 9.76724C61.7798 10.068 62.0391 10.2184 62.3739 10.2184C62.7021 10.2184 62.9589 10.0656 63.1443 9.75924C63.3043 9.50564 63.3831 9.20484 63.3831 8.85684Z" fill="white"/>
<path d="M68.4374 10.7464H67.6653L67.6013 10.312H67.5775C67.3133 10.6584 66.9367 10.832 66.4477 10.832C66.0826 10.832 65.7872 10.7176 65.5648 10.4904C65.363 10.284 65.2621 10.0272 65.2621 9.72244C65.2621 9.26164 65.459 8.91044 65.8553 8.66724C66.2508 8.42404 66.8071 8.30484 67.5234 8.31044V8.24004C67.5234 7.74324 67.2559 7.49524 66.7201 7.49524C66.3386 7.49524 66.0022 7.58884 65.7117 7.77444L65.5369 7.22404C65.8963 7.00724 66.3402 6.89844 66.8637 6.89844C67.8746 6.89844 68.3816 7.41844 68.3816 8.45844V9.84724C68.3816 10.224 68.4005 10.524 68.4374 10.7464ZM67.5447 9.45044V8.86884C66.5962 8.85284 66.122 9.10644 66.122 9.62884C66.122 9.82564 66.1761 9.97284 66.2869 10.0712C66.3976 10.1696 66.5388 10.2184 66.707 10.2184C66.8957 10.2184 67.0721 10.16 67.2329 10.044C67.3946 9.92724 67.4938 9.77924 67.5308 9.59764C67.5398 9.55684 67.5447 9.50724 67.5447 9.45044Z" fill="white"/>
<path d="M73.3236 10.7462H72.5605L72.5203 10.1406H72.4965C72.2529 10.6014 71.8377 10.8318 71.2543 10.8318C70.7882 10.8318 70.4001 10.6534 70.0924 10.2966C69.7848 9.93983 69.6313 9.47663 69.6313 8.90783C69.6313 8.29743 69.7979 7.80303 70.1327 7.42543C70.4568 7.07343 70.8539 6.89743 71.3265 6.89743C71.8459 6.89743 72.2094 7.06783 72.4161 7.40943H72.4325V5.24463H73.2933V9.73023C73.2933 10.0974 73.3031 10.4358 73.3236 10.7462ZM72.4325 9.15583V8.52703C72.4325 8.41823 72.4243 8.33023 72.4087 8.26303C72.3603 8.06143 72.2561 7.89183 72.0978 7.75503C71.9378 7.61823 71.745 7.54943 71.5226 7.54943C71.2018 7.54943 70.9507 7.67343 70.7661 7.92223C70.5831 8.17103 70.4904 8.48863 70.4904 8.87663C70.4904 9.24943 70.5782 9.55183 70.7546 9.78463C70.9409 10.0326 71.1919 10.1566 71.5062 10.1566C71.7884 10.1566 72.0141 10.0534 72.1856 9.84623C72.3513 9.65503 72.4325 9.42463 72.4325 9.15583Z" fill="white"/>
<path d="M80.6779 8.82964C80.6779 9.40964 80.508 9.88484 80.1683 10.2576C79.8122 10.6408 79.3413 10.832 78.7513 10.832C78.1843 10.832 77.7322 10.6488 77.3942 10.2808C77.0578 9.91364 76.8896 9.45044 76.8896 8.89204C76.8896 8.30804 77.0627 7.82884 77.4106 7.45684C77.7585 7.08484 78.2262 6.89844 78.8161 6.89844C79.3831 6.89844 79.8401 7.08164 80.1847 7.44884C80.5129 7.80564 80.6779 8.26644 80.6779 8.82964ZM79.7868 8.85684C79.7868 8.50884 79.7097 8.21044 79.5562 7.96164C79.3749 7.66084 79.1189 7.51044 78.7841 7.51044C78.4395 7.51044 78.1769 7.66084 77.9956 7.96164C77.8414 8.21044 77.765 8.51364 77.765 8.87204C77.765 9.22004 77.8422 9.51844 77.9956 9.76724C78.1819 10.068 78.4411 10.2184 78.7759 10.2184C79.1041 10.2184 79.3626 10.0656 79.548 9.75924C79.7064 9.50564 79.7868 9.20484 79.7868 8.85684Z" fill="white"/>
<path d="M85.3015 10.7464H84.4424V8.5864C84.4424 7.9208 84.1831 7.588 83.6621 7.588C83.4069 7.588 83.2009 7.6792 83.0418 7.8624C82.8826 8.0456 82.803 8.2616 82.803 8.5088V10.7456H81.9423V8.0528C81.9423 7.7216 81.9324 7.3624 81.9119 6.9736H82.6668L82.707 7.5632H82.7308C82.8317 7.38 82.9811 7.2288 83.1763 7.108C83.4102 6.9672 83.6703 6.896 83.9566 6.896C84.3168 6.896 84.6171 7.0096 84.8559 7.2376C85.1538 7.5168 85.3015 7.9336 85.3015 8.4872V10.7464Z" fill="white"/>
<path d="M91.0885 7.60284H90.1417V9.43484C90.1417 9.90044 90.3099 10.1332 90.643 10.1332C90.7973 10.1332 90.9253 10.1204 91.0262 10.094L91.0483 10.73C90.8785 10.7924 90.6553 10.8236 90.3804 10.8236C90.0407 10.8236 89.7765 10.7228 89.5854 10.5212C89.3934 10.3196 89.2982 9.98044 89.2982 9.50444V7.60284H88.7328V6.97484H89.2982V6.28364L90.1408 6.03564V6.97404H91.0877V7.60284H91.0885Z" fill="white"/>
<path d="M95.6407 10.7462H94.78V8.60223C94.78 7.92623 94.5207 7.58783 94.0014 7.58783C93.6026 7.58783 93.3302 7.78383 93.1808 8.17583C93.1554 8.25823 93.1406 8.35903 93.1406 8.47743V10.7454H92.2816V5.24463H93.1406V7.51743H93.157C93.4278 7.10383 93.8159 6.89743 94.3189 6.89743C94.675 6.89743 94.9696 7.01103 95.2034 7.23903C95.4947 7.52303 95.6407 7.94543 95.6407 8.50383V10.7462Z" fill="white"/>
<path d="M100.337 8.68231C100.337 8.83271 100.325 8.95911 100.305 9.06231H97.7256C97.7371 9.43511 97.8602 9.71911 98.099 9.91591C98.3172 10.0919 98.5987 10.1799 98.9433 10.1799C99.3248 10.1799 99.6727 10.1207 99.9861 10.0015L100.121 10.5839C99.7539 10.7391 99.3223 10.8167 98.8227 10.8167C98.2237 10.8167 97.7519 10.6447 97.4106 10.3007C97.0676 9.95671 96.8977 9.49511 96.8977 8.91591C96.8977 8.34711 97.0561 7.87351 97.3753 7.49591C97.7084 7.09271 98.1589 6.89111 98.7275 6.89111C99.2838 6.89111 99.7064 7.09271 99.9919 7.49591C100.222 7.81591 100.337 8.21191 100.337 8.68231ZM99.516 8.46551C99.5226 8.21671 99.4659 8.00231 99.3494 7.82151C99.2001 7.58871 98.9728 7.47191 98.6651 7.47191C98.3845 7.47191 98.1556 7.58551 97.9808 7.81351C97.838 7.99511 97.7535 8.21191 97.7256 8.46551H99.516Z" fill="white"/>
<path d="M44.901 25.203H43.0376L42.0169 22.0758H38.469L37.4967 25.203H35.6826L39.1976 14.5566H41.3687L44.901 25.203ZM41.7092 20.7638L40.7861 17.9838C40.6885 17.6998 40.5055 17.031 40.2356 15.9782H40.2028C40.0953 16.431 39.9221 17.0998 39.6842 17.9838L38.7775 20.7638H41.7092Z" fill="white"/>
<path d="M53.9406 21.2703C53.9406 22.5759 53.5788 23.6079 52.8551 24.3655C52.2069 25.0399 51.4019 25.3767 50.4411 25.3767C49.404 25.3767 48.659 25.0135 48.2052 24.2871H48.1724V28.3311H46.4231V20.0535C46.4231 19.2327 46.4009 18.3903 46.3582 17.5263H47.8967L47.9943 18.7431H48.0272C48.6106 17.8263 49.4959 17.3687 50.684 17.3687C51.6128 17.3687 52.3882 17.7263 53.0085 18.4423C53.6305 19.1591 53.9406 20.1015 53.9406 21.2703ZM52.1585 21.3327C52.1585 20.5855 51.9861 19.9695 51.6399 19.4847C51.2616 18.9791 50.7537 18.7263 50.117 18.7263C49.6854 18.7263 49.2932 18.8671 48.9429 19.1447C48.5917 19.4247 48.3619 19.7903 48.2544 20.2431C48.2003 20.4543 48.1732 20.6271 48.1732 20.7631V22.0431C48.1732 22.6015 48.3488 23.0727 48.7 23.4575C49.0512 23.8423 49.5074 24.0343 50.0686 24.0343C50.7275 24.0343 51.2403 23.7863 51.6071 23.2919C51.9747 22.7967 52.1585 22.1439 52.1585 21.3327Z" fill="white"/>
<path d="M62.9966 21.2703C62.9966 22.5759 62.6348 23.6079 61.9102 24.3655C61.2629 25.0399 60.4579 25.3767 59.4971 25.3767C58.46 25.3767 57.715 25.0135 57.262 24.2871H57.2292V28.3311H55.4799V20.0535C55.4799 19.2327 55.4577 18.3903 55.4151 17.5263H56.9535L57.0512 18.7431H57.084C57.6666 17.8263 58.5519 17.3687 59.7408 17.3687C60.6688 17.3687 61.4442 17.7263 62.0661 18.4423C62.6856 19.1591 62.9966 20.1015 62.9966 21.2703ZM61.2145 21.3327C61.2145 20.5855 61.0413 19.9695 60.6951 19.4847C60.3168 18.9791 59.8106 18.7263 59.173 18.7263C58.7406 18.7263 58.3492 18.8671 57.998 19.1447C57.6469 19.4247 57.4179 19.7903 57.3105 20.2431C57.2571 20.4543 57.2292 20.6271 57.2292 20.7631V22.0431C57.2292 22.6015 57.4048 23.0727 57.7543 23.4575C58.1055 23.8415 58.5617 24.0343 59.1246 24.0343C59.7835 24.0343 60.2963 23.7863 60.6631 23.2919C61.0307 22.7967 61.2145 22.1439 61.2145 21.3327Z" fill="white"/>
<path d="M73.1217 22.2177C73.1217 23.1233 72.7993 23.8601 72.1519 24.4289C71.4405 25.0505 70.4502 25.3609 69.1775 25.3609C68.0026 25.3609 67.0606 25.1401 66.3476 24.6977L66.7529 23.2761C67.5209 23.7289 68.3636 23.9561 69.2818 23.9561C69.9406 23.9561 70.4534 23.8105 70.8219 23.5209C71.1886 23.2313 71.3716 22.8425 71.3716 22.3577C71.3716 21.9257 71.2206 21.5617 70.9178 21.2665C70.6167 20.9713 70.1137 20.6969 69.4114 20.4433C67.4996 19.7481 66.5445 18.7297 66.5445 17.3905C66.5445 16.5153 66.8793 15.7977 67.5496 15.2393C68.2175 14.6801 69.1086 14.4009 70.2229 14.4009C71.2165 14.4009 72.042 14.5697 72.7008 14.9065L72.2635 16.2969C71.6481 15.9705 70.9523 15.8073 70.1736 15.8073C69.5583 15.8073 69.0774 15.9553 68.7328 16.2497C68.4415 16.5129 68.2955 16.8337 68.2955 17.2137C68.2955 17.6345 68.4621 17.9825 68.7968 18.2561C69.0881 18.5089 69.6173 18.7825 70.3853 19.0777C71.3248 19.4465 72.0149 19.8777 72.4588 20.3721C72.901 20.8649 73.1217 21.4817 73.1217 22.2177Z" fill="white"/>
<path d="M78.9055 18.8066H76.9773V22.5338C76.9773 23.4818 77.317 23.9554 77.9981 23.9554C78.3107 23.9554 78.57 23.929 78.7751 23.8762L78.8235 25.1714C78.4789 25.297 78.0251 25.3602 77.4631 25.3602C76.7722 25.3602 76.2323 25.1546 75.8426 24.7442C75.4545 24.333 75.2592 23.6434 75.2592 22.6746V18.805H74.1105V17.525H75.2592V16.1194L76.9773 15.6138V17.525H78.9055V18.8066Z" fill="white"/>
<path d="M87.6054 21.3016C87.6054 22.4816 87.2592 23.4504 86.5683 24.208C85.8438 24.988 84.8822 25.3768 83.6834 25.3768C82.5281 25.3768 81.6083 25.0032 80.9224 24.256C80.2364 23.5088 79.8934 22.5656 79.8934 21.4288C79.8934 20.2392 80.2463 19.2648 80.9544 18.5072C81.6608 17.7488 82.6143 17.3696 83.813 17.3696C84.9683 17.3696 85.8979 17.7432 86.5995 18.4912C87.2707 19.2168 87.6054 20.1536 87.6054 21.3016ZM85.7905 21.3568C85.7905 20.6488 85.6354 20.0416 85.3211 19.5352C84.9544 18.9224 84.43 18.6168 83.7507 18.6168C83.0475 18.6168 82.5133 18.9232 82.1466 19.5352C81.8323 20.0424 81.6772 20.6592 81.6772 21.3888C81.6772 22.0968 81.8323 22.704 82.1466 23.2096C82.5248 23.8224 83.0532 24.128 83.7351 24.128C84.403 24.128 84.9273 23.816 85.3055 23.1936C85.628 22.6776 85.7905 22.064 85.7905 21.3568Z" fill="white"/>
<path d="M93.2916 19.0263C93.1185 18.9951 92.9339 18.9791 92.7402 18.9791C92.1248 18.9791 91.6489 19.2055 91.3142 19.6591C91.0229 20.0591 90.8768 20.5647 90.8768 21.1751V25.2031H89.1283L89.1447 19.9439C89.1447 19.0591 89.1226 18.2535 89.0791 17.5271H90.6028L90.6668 18.9959H90.7152C90.8998 18.4911 91.1911 18.0847 91.5898 17.7799C91.9796 17.5055 92.4005 17.3687 92.8543 17.3687C93.0159 17.3687 93.162 17.3799 93.2916 17.3999V19.0263Z" fill="white"/>
<path d="M101.115 21.0017C101.115 21.3073 101.095 21.5649 101.051 21.7753H95.8032C95.8237 22.5337 96.0772 23.1137 96.5646 23.5137C97.0069 23.8713 97.5788 24.0505 98.2811 24.0505C99.0581 24.0505 99.7671 23.9297 100.405 23.6873L100.679 24.8713C99.9336 25.1881 99.054 25.3457 98.0391 25.3457C96.8181 25.3457 95.8598 24.9953 95.1623 24.2953C94.4665 23.5953 94.1178 22.6553 94.1178 21.4761C94.1178 20.3185 94.4419 19.3545 95.091 18.5857C95.7703 17.7649 96.6885 17.3545 97.8438 17.3545C98.9785 17.3545 99.8376 17.7649 100.421 18.5857C100.883 19.2377 101.115 20.0441 101.115 21.0017ZM99.4471 20.5593C99.4585 20.0537 99.3445 19.6169 99.1074 19.2481C98.8046 18.7737 98.3394 18.5369 97.7133 18.5369C97.1414 18.5369 96.6762 18.7681 96.3209 19.2321C96.0296 19.6009 95.8565 20.0433 95.8032 20.5585H99.4471V20.5593Z" fill="white"/>
</svg>
