<svg width="112" height="32" viewBox="0 0 112 32" fill="none" xmlns="http://www.w3.org/2000/svg">
<path d="M107.773 32H4.99572C2.73564 32 0.884613 30.199 0.884613 28V4C0.884613 1.801 2.73564 1.90735e-06 4.99572 1.90735e-06H107.773C110.034 1.90735e-06 111.885 1.801 111.885 4V28C111.885 30.199 110.034 32 107.773 32Z" fill="black"/>
<path d="M107.773 0.641C109.677 0.641 111.226 2.148 111.226 4V28C111.226 29.852 109.677 31.359 107.773 31.359H4.99572C3.09228 31.359 1.54342 29.852 1.54342 28V4C1.54342 2.148 3.09228 0.641 4.99572 0.641H107.773ZM107.773 1.90735e-06H4.99572C2.73564 1.90735e-06 0.884613 1.801 0.884613 4V28C0.884613 30.199 2.73564 32 4.99572 32H107.773C110.034 32 111.885 30.199 111.885 28V4C111.885 1.801 110.034 1.90735e-06 107.773 1.90735e-06Z" fill="#A6A6A6"/>
<path d="M8.84786 6.03085C8.60633 6.27685 8.46655 6.65985 8.46655 7.15585V24.8479C8.46655 25.3439 8.60633 25.7269 8.84786 25.9729L8.90747 26.0269L19.0969 16.1169V15.8829L8.90747 5.97285L8.84786 6.03085Z" fill="white"/>
<path d="M23.7229 19.4219L20.3302 16.1169V15.8829L23.727 12.5779L23.803 12.6209L27.8258 14.8479C28.9738 15.4799 28.9738 16.5199 27.8258 17.1559L23.803 19.3789L23.7229 19.4219Z" fill="white"/>
<path d="M23.1864 19.9942L19.7135 16.6152L9.46451 26.5882C9.84581 26.9782 10.4676 27.0252 11.1747 26.6352L23.1864 19.9942Z" fill="white"/>
<path d="M23.1864 12.0053L11.1747 5.36428C10.4676 4.97828 9.84581 5.02528 9.46451 5.41528L19.7135 15.3843L23.1864 12.0053Z" fill="white"/>
<path d="M39.8723 8.1947C39.8723 8.8627 39.6668 9.3977 39.2618 9.7967C38.7963 10.2697 38.1899 10.5077 37.4468 10.5077C36.7366 10.5077 36.1302 10.2657 35.6328 9.7887C35.1343 9.3047 34.8856 8.7107 34.8856 7.9997C34.8856 7.2887 35.1343 6.6947 35.6328 6.2147C36.1302 5.7337 36.7366 5.4917 37.4468 5.4917C37.8003 5.4917 38.1374 5.5627 38.4591 5.6947C38.7798 5.8277 39.0409 6.0077 39.23 6.2297L38.8004 6.6517C38.4704 6.2727 38.0213 6.0857 37.4468 6.0857C36.9288 6.0857 36.4796 6.2617 36.0983 6.6167C35.7211 6.9727 35.532 7.4337 35.532 7.9997C35.532 8.5657 35.7211 9.0307 36.0983 9.3867C36.4796 9.7377 36.9288 9.9177 37.4468 9.9177C37.9966 9.9177 38.4591 9.7377 38.824 9.3827C39.0645 9.1477 39.2012 8.8237 39.2372 8.4097H37.4468V7.8317H39.8353C39.8641 7.9567 39.8723 8.0777 39.8723 8.1947Z" fill="white" stroke="white" stroke-width="0.16" stroke-miterlimit="10"/>
<path d="M43.6617 6.19105H41.4181V7.71105H43.4408V8.28905H41.4181V9.80905H43.6617V10.398H40.7829V5.60205H43.6617V6.19105Z" fill="white" stroke="white" stroke-width="0.16" stroke-miterlimit="10"/>
<path d="M46.336 10.398H45.7008V6.19105H44.3246V5.60205H47.7132V6.19105H46.336V10.398Z" fill="white" stroke="white" stroke-width="0.16" stroke-miterlimit="10"/>
<path d="M50.1656 10.398V5.60205H50.7997V10.398H50.1656Z" fill="white" stroke="white" stroke-width="0.16" stroke-miterlimit="10"/>
<path d="M53.6106 10.398H52.9806V6.19105H51.5993V5.60205H54.992V6.19105H53.6106V10.398Z" fill="white" stroke="white" stroke-width="0.16" stroke-miterlimit="10"/>
<path d="M61.4073 9.7807C60.9212 10.2657 60.3189 10.5077 59.6005 10.5077C58.878 10.5077 58.2757 10.2657 57.7896 9.7807C57.3045 9.2967 57.0629 8.7027 57.0629 7.9997C57.0629 7.2967 57.3045 6.7027 57.7896 6.2187C58.2757 5.7337 58.878 5.4917 59.6005 5.4917C60.3148 5.4917 60.9171 5.7337 61.4032 6.2227C61.8925 6.7107 62.134 7.3007 62.134 7.9997C62.134 8.7027 61.8925 9.2967 61.4073 9.7807ZM58.2593 9.3787C58.6252 9.7377 59.0702 9.9177 59.6005 9.9177C60.1267 9.9177 60.5759 9.7377 60.9377 9.3787C61.3025 9.0197 61.4875 8.5587 61.4875 7.9997C61.4875 7.4407 61.3025 6.9797 60.9377 6.6207C60.5759 6.2617 60.1267 6.0817 59.6005 6.0817C59.0702 6.0817 58.6252 6.2617 58.2593 6.6207C57.8944 6.9797 57.7094 7.4407 57.7094 7.9997C57.7094 8.5587 57.8944 9.0197 58.2593 9.3787Z" fill="white" stroke="white" stroke-width="0.16" stroke-miterlimit="10"/>
<path d="M63.0251 10.398V5.60205H63.7959L66.1927 9.33205H66.2204L66.1927 8.41005V5.60205H66.8268V10.398H66.1649L63.6551 6.48405H63.6274L63.6551 7.41005V10.398H63.0251Z" fill="white" stroke="white" stroke-width="0.16" stroke-miterlimit="10"/>
<path d="M56.9067 17.4022C54.9755 17.4022 53.3979 18.8322 53.3979 20.8052C53.3979 22.7622 54.9755 24.2072 56.9067 24.2072C58.842 24.2072 60.4197 22.7622 60.4197 20.8052C60.4197 18.8322 58.842 17.4022 56.9067 17.4022ZM56.9067 22.8672C55.8471 22.8672 54.9354 22.0162 54.9354 20.8052C54.9354 19.5782 55.8471 18.7422 56.9067 18.7422C57.9663 18.7422 58.8821 19.5782 58.8821 20.8052C58.8821 22.0162 57.9663 22.8672 56.9067 22.8672ZM49.2508 17.4022C47.3155 17.4022 45.742 18.8322 45.742 20.8052C45.742 22.7622 47.3155 24.2072 49.2508 24.2072C51.1851 24.2072 52.7596 22.7622 52.7596 20.8052C52.7596 18.8322 51.1851 17.4022 49.2508 17.4022ZM49.2508 22.8672C48.1901 22.8672 47.2754 22.0162 47.2754 20.8052C47.2754 19.5782 48.1901 18.7422 49.2508 18.7422C50.3104 18.7422 51.2221 19.5782 51.2221 20.8052C51.2221 22.0162 50.3104 22.8672 49.2508 22.8672ZM40.1406 18.4452V19.8912H43.6895C43.5857 20.6992 43.3082 21.2932 42.8827 21.7072C42.3647 22.2072 41.5579 22.7622 40.1406 22.7622C37.9565 22.7622 36.2463 21.0472 36.2463 18.9222C36.2463 16.7972 37.9565 15.0822 40.1406 15.0822C41.3215 15.0822 42.1807 15.5312 42.8148 16.1132L43.8622 15.0942C42.9752 14.2702 41.7953 13.6372 40.1406 13.6372C37.1456 13.6372 34.6286 16.0082 34.6286 18.9222C34.6286 21.8362 37.1456 24.2072 40.1406 24.2072C41.7593 24.2072 42.9752 23.6912 43.931 22.7232C44.9105 21.7702 45.2157 20.4302 45.2157 19.3482C45.2157 19.0122 45.187 18.7032 45.1356 18.4452H40.1406ZM77.3934 19.5662C77.1046 18.8052 76.2135 17.4022 74.3984 17.4022C72.5998 17.4022 71.1024 18.7812 71.1024 20.8052C71.1024 22.7112 72.5844 24.2072 74.5711 24.2072C76.1775 24.2072 77.1046 23.2542 77.4859 22.6992L76.2937 21.9262C75.8959 22.4922 75.3543 22.8672 74.5711 22.8672C73.7931 22.8672 73.235 22.5202 72.8773 21.8362L77.5548 19.9532L77.3934 19.5662ZM72.6245 20.6992C72.5844 19.3872 73.6718 18.7152 74.4509 18.7152C75.0614 18.7152 75.5794 19.0122 75.752 19.4372L72.6245 20.6992ZM68.8228 24.0002H70.3603V14.0002H68.8228V24.0002ZM66.3047 18.1602H66.2533C65.908 17.7622 65.2492 17.4022 64.4146 17.4022C62.6633 17.4022 61.062 18.8982 61.062 20.8162C61.062 22.7232 62.6633 24.2072 64.4146 24.2072C65.2492 24.2072 65.908 23.8442 66.2533 23.4342H66.3047V23.9222C66.3047 25.2232 65.5904 25.9222 64.4383 25.9222C63.4989 25.9222 62.9161 25.2622 62.6756 24.7072L61.3385 25.2502C61.7239 26.1522 62.7445 27.2622 64.4383 27.2622C66.241 27.2622 67.7621 26.2302 67.7621 23.7192V17.6092H66.3047V18.1602ZM64.5462 22.8672C63.4865 22.8672 62.5996 22.0042 62.5996 20.8162C62.5996 19.6172 63.4865 18.7422 64.5462 18.7422C65.5904 18.7422 66.4136 19.6172 66.4136 20.8162C66.4136 22.0042 65.5904 22.8672 64.5462 22.8672ZM84.5919 14.0002H80.9146V24.0002H82.448V20.2112H84.5919C86.295 20.2112 87.9651 19.0122 87.9651 17.1052C87.9651 15.1992 86.2909 14.0002 84.5919 14.0002ZM84.632 18.8202H82.448V15.3912H84.632C85.777 15.3912 86.4306 16.3162 86.4306 17.1052C86.4306 17.8792 85.777 18.8202 84.632 18.8202ZM94.1112 17.3832C93.0033 17.3832 91.8511 17.8592 91.3773 18.9142L92.7381 19.4692C93.031 18.9142 93.5696 18.7342 94.139 18.7342C94.9345 18.7342 95.7413 19.1992 95.7536 20.0202V20.1252C95.4761 19.9692 94.8821 19.7382 94.1513 19.7382C92.6857 19.7382 91.1923 20.5232 91.1923 21.9882C91.1923 23.3282 92.3928 24.1912 93.7422 24.1912C94.7741 24.1912 95.3435 23.7382 95.7012 23.2112H95.7536V23.9842H97.2346V20.1482C97.2346 18.3752 95.8739 17.3832 94.1112 17.3832ZM93.9262 22.8632C93.4247 22.8632 92.7258 22.6212 92.7258 22.0162C92.7258 21.2422 93.5973 20.9452 94.3517 20.9452C95.027 20.9452 95.3435 21.0902 95.7536 21.2812C95.6334 22.2072 94.8142 22.8632 93.9262 22.8632ZM102.63 17.6022L100.868 21.9372H100.815L98.9932 17.6022H97.3395L100.077 23.6602L98.5152 27.0312H100.118L104.337 17.6022H102.63ZM88.8079 24.0002H90.3454V14.0002H88.8079V24.0002Z" fill="white"/>
</svg>
