<svg width="24" height="24" viewBox="0 0 24 24" fill="none" xmlns="http://www.w3.org/2000/svg">
<path d="M8 22V20.25C6.25 19.55 4.8125 18.4667 3.6875 17C2.5625 15.5333 2 13.8667 2 12C2 10.6167 2.2625 9.31667 2.7875 8.1C3.3125 6.88333 4.025 5.825 4.925 4.925C5.825 4.025 6.88333 3.3125 8.1 2.7875C9.31667 2.2625 10.6167 2 12 2C13.3833 2 14.6833 2.2625 15.9 2.7875C17.1167 3.3125 18.175 4.025 19.075 4.925C19.975 5.825 20.6875 6.88333 21.2125 8.1C21.7375 9.31667 22 10.6167 22 12C22 13.8667 21.4375 15.5333 20.3125 17C19.1875 18.4667 17.75 19.55 16 20.25V22H8ZM10 12H14V4.25C13.6667 4.16667 13.3333 4.10417 13 4.0625C12.6667 4.02083 12.3333 4 12 4C11.6667 4 11.3333 4.02083 11 4.0625C10.6667 4.10417 10.3333 4.16667 10 4.25V12ZM4 12H8V5.075C6.75 5.79167 5.77083 6.76667 5.0625 8C4.35417 9.23333 4 10.5667 4 12ZM16 12H20C20 10.5667 19.6458 9.23333 18.9375 8C18.2292 6.76667 17.25 5.79167 16 5.075V12ZM10 20H14V18.9C15.2 18.4167 16.3083 17.7792 17.325 16.9875C18.3417 16.1958 19.1 15.2 19.6 14H4.4C4.9 15.2 5.65833 16.1958 6.675 16.9875C7.69167 17.7792 8.8 18.4167 10 18.9V20Z" fill="#101828"/>
</svg>
