<svg width="16" height="16" viewBox="0 0 16 16" fill="none" xmlns="http://www.w3.org/2000/svg">
<g clip-path="url(#clip0_497_4645)">
<path d="M8.00014 16.0003C12.4185 16.0003 16.0003 12.4185 16.0003 8.00014C16.0003 3.58179 12.4185 0 8.00014 0C3.58179 0 0 3.58179 0 8.00014C0 12.4185 3.58179 16.0003 8.00014 16.0003Z" fill="#FFBF1A"/>
<path d="M8.00018 15.7735C12.2933 15.7735 15.7735 12.2933 15.7735 8.00018C15.7735 3.70706 12.2933 0.226807 8.00018 0.226807C3.70706 0.226807 0.226807 3.70706 0.226807 8.00018C0.226807 12.2933 3.70706 15.7735 8.00018 15.7735Z" fill="#FFD522"/>
<path d="M15.6602 8.00019H14.2244C14.2244 4.5626 11.4378 1.77597 8.00019 1.77597C4.5626 1.77597 1.77568 4.56231 1.77568 8.00019H0.34021C0.34021 3.76946 3.76946 0.34021 8.00019 0.34021C12.2309 0.34021 15.6602 3.76975 15.6602 8.00019Z" fill="#FFD216"/>
<path d="M8.00014 14.0733C11.3542 14.0733 14.0733 11.3542 14.0733 8.00014C14.0733 4.64604 11.3542 1.927 8.00014 1.927C4.64604 1.927 1.927 4.64604 1.927 8.00014C1.927 11.3542 4.64604 14.0733 8.00014 14.0733Z" fill="#FFA52D"/>
<path d="M8.00009 13.8749C11.2447 13.8749 13.8749 11.2447 13.8749 8.00009C13.8749 4.7555 11.2447 2.12524 8.00009 2.12524C4.7555 2.12524 2.12524 4.7555 2.12524 8.00009C2.12524 11.2447 4.7555 13.8749 8.00009 13.8749Z" fill="#FFBF1A"/>
<path d="M11.2651 8.31299C9.50759 8.84885 8.84885 9.50759 8.31299 11.2651C8.2186 11.5745 7.78116 11.5745 7.68706 11.2651C7.1512 9.50759 6.49246 8.84885 4.73496 8.31299C4.42559 8.2186 4.42559 7.78116 4.73496 7.68706C6.49246 7.1512 7.1512 6.49246 7.68706 4.73496C7.78145 4.42559 8.21889 4.42559 8.31299 4.73496C8.84885 6.49246 9.50759 7.1512 11.2651 7.68706C11.5745 7.78145 11.5745 8.21889 11.2651 8.31299Z" fill="#FFD522"/>
</g>
<defs>
<clipPath id="clip0_497_4645">
<rect width="16" height="16" fill="white"/>
</clipPath>
</defs>
</svg>
